<svg version="1.1" viewBox="0 0 512 512" xmlns="http://www.w3.org/2000/svg">
 <g fill="#000">
  <rect x="102.58" y="394.18" width="117.24" height="21.82"/>
  <rect x="102.58" y="305.68" width="160.3" height="21.82"/>
  <rect x="102.58" y="217.2" width="228.37" height="21.82"/>
  <rect x="223.31" y="128.73" width="107.64" height="21.82"/>
  <path d="M392.76,465.44c0,11.228-9.135,20.38-20.375,20.38H61.141c-11.241,0-20.376-9.151-20.376-20.38V175.998H165.32c13.773,0,24.976-11.211,24.976-24.988V26.181h182.093c11.24,0,20.375,9.135,20.375,20.364v147.07l26.185-26.18V46.544C418.949,20.885,398.06,0,372.389,0H183.532c-13.574,0-26.577,5.379-36.164,14.968L29.565,132.78c-9.598,9.591-14.981,22.606-14.981,36.168V465.44c0,25.675,20.89,46.56,46.557,46.56h311.249c25.671,0,46.56-20.885,46.56-46.56V340.23l-26.185,26.181V465.44z M167.02,32.345v104.656c0,11.319-4.41,15.721-15.726,15.721H46.639L167.02,32.345z"/>
  <path d="M493.79,206.75l-27.761-27.761c-4.828-4.832-12.66-4.832-17.492,0l-17.998,17.998l45.258,45.253l17.993-17.997C498.62,219.41,498.62,211.58,493.79,206.75z"/>
  <polygon points="262.9,364.63 247.47,425.32 308.15,409.88"/>
  <path d="M272.15,355.37l45.257,45.254l150.16-150.16l-45.257-45.262L272.15,355.37z M439.8,243.27L308.97,374.1l-10.285-10.294l130.83-130.83L439.8,243.27z"/>
 </g>
</svg>